<svg xmlns="http://www.w3.org/2000/svg" width="20" height="20" viewBox="0 0 20 20">
  <path id="compress-solid" d="M19.464,39.143H13.929a1.069,1.069,0,0,1-1.071-1.071V32.536A.537.537,0,0,1,13.393,32h1.786a.537.537,0,0,1,.536.536v3.75h3.75a.537.537,0,0,1,.536.536v1.786A.537.537,0,0,1,19.464,39.143ZM7.143,38.071V32.536A.537.537,0,0,0,6.607,32H4.821a.537.537,0,0,0-.536.536v3.75H.536A.537.537,0,0,0,0,36.821v1.786a.537.537,0,0,0,.536.536H6.071A1.069,1.069,0,0,0,7.143,38.071Zm0,13.393V45.929a1.069,1.069,0,0,0-1.071-1.071H.536A.537.537,0,0,0,0,45.393v1.786a.537.537,0,0,0,.536.536h3.75v3.75A.537.537,0,0,0,4.821,52H6.607A.537.537,0,0,0,7.143,51.464Zm8.571,0v-3.75h3.75A.537.537,0,0,0,20,47.179V45.393a.537.537,0,0,0-.536-.536H13.929a1.069,1.069,0,0,0-1.071,1.071v5.536a.537.537,0,0,0,.536.536h1.786A.537.537,0,0,0,15.714,51.464Z" transform="translate(0 -32)" fill="#d4d4d4"/>
</svg>
