<svg xmlns="http://www.w3.org/2000/svg" width="20" height="20" viewBox="0 0 20 20">
  <path id="crop-alt-solid" d="M19.063,13.75H17.5v-10A1.25,1.25,0,0,0,16.25,2.5H7.5V6.25h6.25V19.063a.938.938,0,0,0,.938.938h1.875a.938.938,0,0,0,.938-.937V17.5h1.563A.938.938,0,0,0,20,16.563V14.688A.937.937,0,0,0,19.063,13.75ZM6.25.938A.937.937,0,0,0,5.313,0H3.438A.937.937,0,0,0,2.5.938V2.5H.938A.937.937,0,0,0,0,3.438V5.313a.938.938,0,0,0,.938.938H2.5v10A1.25,1.25,0,0,0,3.75,17.5H12.5V13.75H6.25Z" fill="#d4d4d4"/>
</svg>
