<svg xmlns="http://www.w3.org/2000/svg" width="20" height="20" viewBox="0 0 20 20">
  <path id="eye-dropper-solid" d="M1.982,13.013a2.5,2.5,0,0,0-.732,1.768v1.777L0,18.745,1.25,20l2.187-1.25H5.214a2.5,2.5,0,0,0,1.768-.732l4.947-4.946-5-5ZM18.9,1.094a3.749,3.749,0,0,0-5.3,0L10.587,4.1l-.512-.512a.937.937,0,0,0-1.326,0l-1.6,1.6a.938.938,0,0,0,0,1.326l6.326,6.326a.937.937,0,0,0,1.326,0l1.6-1.6a.938.938,0,0,0,0-1.326l-.512-.512L18.9,6.4a3.748,3.748,0,0,0,0-5.3Z" transform="translate(0 0.005)" fill="#d4d4d4"/>
</svg>
