<svg xmlns="http://www.w3.org/2000/svg" width="20" height="20" viewBox="0 0 20 20">
  <path id="magic-solid" d="M8.75,3.75,9.375,2.5l1.25-.625L9.375,1.25,8.75,0,8.125,1.25l-1.25.625,1.25.625ZM3.125,6.25,4.166,4.167,6.25,3.125,4.166,2.083,3.125,0,2.084,2.083,0,3.125,2.084,4.167Zm13.75,5-1.041,2.083L13.75,14.375l2.084,1.042L16.875,17.5l1.041-2.083L20,14.375l-2.084-1.042Zm2.759-7.569L16.319.366a1.249,1.249,0,0,0-1.768,0L.366,14.552a1.25,1.25,0,0,0,0,1.768l3.314,3.315a1.25,1.25,0,0,0,1.768,0L19.634,5.448A1.249,1.249,0,0,0,19.634,3.681ZM14.041,7.948,12.052,5.959l3.383-3.383,1.989,1.989L14.041,7.948Z" fill="#d4d4d4"/>
</svg>
