<svg xmlns="http://www.w3.org/2000/svg" width="20" height="20" viewBox="0 0 20 20">
  <path id="palette-solid" d="M7.992.162A9.947,9.947,0,0,0,.215,7.912c-1.445,7.3,5.145,12.75,10.11,11.981a2.466,2.466,0,0,0,1.66-3.582,2.643,2.643,0,0,1,2.379-3.844h3.113a2.556,2.556,0,0,0,2.535-2.551A10.008,10.008,0,0,0,7.992.162Zm-4.231,12.3a1.25,1.25,0,1,1,1.25-1.25A1.249,1.249,0,0,1,3.762,12.467Zm1.25-5a1.25,1.25,0,1,1,1.25-1.25A1.249,1.249,0,0,1,5.012,7.466Zm5-2.5a1.25,1.25,0,1,1,1.25-1.25A1.249,1.249,0,0,1,10.012,4.966Zm5,2.5a1.25,1.25,0,1,1,1.25-1.25A1.249,1.249,0,0,1,15.012,7.466Z" transform="translate(-0.012 0.035)" fill="#d8dad8"/>
</svg>
