<svg xmlns="http://www.w3.org/2000/svg" width="20" height="20" viewBox="0 0 20 20">
  <path id="search-plus-solid" d="M11.876,7.5v1.25a.47.47,0,0,1-.469.469H9.219v2.187a.47.47,0,0,1-.469.469H7.5a.47.47,0,0,1-.469-.469V9.218H4.844a.47.47,0,0,1-.469-.469V7.5a.47.47,0,0,1,.469-.469H7.032V4.843A.47.47,0,0,1,7.5,4.375H8.75a.47.47,0,0,1,.469.469V7.031h2.188A.47.47,0,0,1,11.876,7.5Zm7.852,11.12-1.106,1.105a.934.934,0,0,1-1.324,0L13.4,15.83a.937.937,0,0,1-.273-.664V14.53a8.12,8.12,0,1,1,1.406-1.406h.637a.937.937,0,0,1,.664.273l3.895,3.894A.945.945,0,0,1,19.728,18.619Zm-6.289-10.5a5.313,5.313,0,1,0-5.313,5.312A5.308,5.308,0,0,0,13.438,8.124Z" fill="#d4d4d4"/>
</svg>
