<svg xmlns="http://www.w3.org/2000/svg" width="20" height="20" viewBox="0 0 20 20">
  <path id="sliders-h-solid" d="M19.375,47.714H6.25V47a.676.676,0,0,0-.625-.714H4.375A.676.676,0,0,0,3.75,47v.714H.625A.676.676,0,0,0,0,48.429v1.429a.676.676,0,0,0,.625.714H3.75v.714A.676.676,0,0,0,4.375,52h1.25a.676.676,0,0,0,.625-.714v-.714H19.375A.676.676,0,0,0,20,49.857V48.429A.676.676,0,0,0,19.375,47.714Zm0-7.143H16.25v-.714a.676.676,0,0,0-.625-.714h-1.25a.676.676,0,0,0-.625.714v.714H.625A.676.676,0,0,0,0,41.286v1.429a.676.676,0,0,0,.625.714H13.75v.714a.676.676,0,0,0,.625.714h1.25a.676.676,0,0,0,.625-.714v-.714h3.125A.676.676,0,0,0,20,42.714V41.286A.676.676,0,0,0,19.375,40.571Zm0-7.143H11.25v-.714A.676.676,0,0,0,10.625,32H9.375a.676.676,0,0,0-.625.714v.714H.625A.676.676,0,0,0,0,34.143v1.429a.676.676,0,0,0,.625.714H8.75V37a.676.676,0,0,0,.625.714h1.25A.676.676,0,0,0,11.25,37v-.714h8.125A.676.676,0,0,0,20,35.571V34.143A.676.676,0,0,0,19.375,33.429Z" transform="translate(0 -32)" fill="#678983"/>
</svg>
